# Blender 4.0.2
# www.blender.org
mtllib googlas.mtl
o Plane
v 0.000000 0.000000 0.510011
v 0.041147 0.032414 -0.500000
v 0.466830 0.000000 -0.300224
v 0.464785 0.000000 -0.179304
v 0.114216 0.000000 -0.413298
v 0.061540 0.000000 0.370191
v 0.126109 0.000000 0.089937
v 0.440339 0.000000 -0.145663
v 0.442384 0.000000 -0.333865
v 0.440851 0.008662 -0.192740
v 0.041147 0.051093 -0.772876
v 0.092186 0.000000 -0.694098
v 0.330839 0.000000 -0.632015
v 0.040165 -0.052401 -0.413298
v 0.000000 0.044183 -0.082469
v 0.441796 0.008662 -0.279721
v 0.000000 0.053345 -0.328688
v 0.066698 0.000000 -0.694100
v 0.088745 0.000000 -0.437244
v 0.000000 0.080989 0.279364
v 0.152231 0.172778 -0.604605
v 0.096155 0.016307 -0.621297
v 0.152184 0.172778 -0.640645
v 0.329017 0.000000 -0.574141
v 0.000000 0.067154 -0.500466
v 0.000000 0.067154 -0.772876
v 0.026750 -0.042805 0.089937
v 0.000000 -0.052401 -0.735554
v 0.000000 -0.034013 0.360076
v 0.000000 -0.052401 -0.413298
v 0.000000 -0.042805 0.089937
v -0.041147 0.032414 -0.500000
v -0.466830 0.000000 -0.300224
v -0.464785 0.000000 -0.179304
v -0.114216 0.000000 -0.413298
v -0.061540 0.000000 0.370191
v -0.126109 0.000000 0.089937
v -0.440339 0.000000 -0.145663
v -0.442384 0.000000 -0.333865
v -0.440851 0.008662 -0.192740
v -0.041147 0.051093 -0.772876
v -0.092186 0.000000 -0.694098
v -0.330839 0.000000 -0.632015
v -0.040165 -0.052401 -0.413298
v -0.441796 0.008662 -0.279721
v -0.066698 0.000000 -0.694100
v -0.088745 0.000000 -0.437244
v -0.152231 0.172778 -0.604605
v -0.096155 0.016307 -0.621297
v -0.152184 0.172778 -0.640645
v -0.329017 0.000000 -0.574141
v -0.026750 -0.042805 0.089937
v 0.000000 0.042472 0.378398
v 0.000000 0.036365 0.395760
v 0.000000 0.062803 0.167864
v 0.000000 0.064005 0.185428
v 0.044982 0.036318 0.272282
v 0.038443 0.042472 0.273482
v -0.038443 0.042472 0.273482
v -0.044982 0.036318 0.272282
v 0.047155 0.005711 -0.688371
v 0.029090 0.041833 -0.688371
v 0.000000 0.053187 -0.688371
v 0.000000 -0.031336 -0.688371
v -0.047155 0.005711 -0.688371
v -0.029090 0.041833 -0.688371
v 0.028504 -0.002178 -0.773198
v 0.028504 0.030736 -0.773198
v -0.000000 0.047193 -0.773198
v 0.000000 -0.018635 -0.773198
v -0.028504 -0.002178 -0.773198
v -0.028504 0.030736 -0.773198
v 0.105272 0.008662 -0.107243
v 0.094494 0.010525 -0.104604
v 0.126109 0.000000 0.089937
v 0.089412 0.011052 -0.321879
v 0.100063 0.008662 -0.320821
v 0.114216 0.000000 -0.413298
v 0.088745 0.000000 -0.437244
v -0.094494 0.010525 -0.104604
v -0.105272 0.008662 -0.107243
v -0.126109 0.000000 0.089937
v -0.100063 0.008662 -0.320821
v -0.089412 0.011052 -0.321879
v -0.088745 0.000000 -0.437244
v -0.114216 0.000000 -0.413298
vn 0.0715 0.9895 -0.1256
vn 0.1557 0.9867 -0.0469
vn 0.2550 0.9621 -0.0969
vn 0.6491 0.7604 0.0210
vn 0.3962 0.9180 -0.0194
vn 0.7594 0.6505 -0.0087
vn 0.5920 0.8057 0.0194
vn 0.4488 0.8936 -0.0074
vn 0.2865 0.9572 -0.0413
vn 0.2013 0.9780 -0.0539
vn 0.6838 0.6856 0.2498
vn 0.6841 0.7251 0.0787
vn 0.7114 0.6991 0.0714
vn 0.4644 0.8855 -0.0135
vn 0.2844 0.9584 0.0243
vn 0.2116 0.9773 0.0124
vn 0.2900 0.9570 -0.0008
vn 0.3833 0.9234 -0.0186
vn 0.0572 0.9960 -0.0693
vn 0.0104 0.9983 -0.0577
vn 0.2846 0.9530 0.1040
vn 0.1599 0.9861 0.0463
vn 0.0814 0.9923 0.0931
vn 0.1052 0.9942 0.0233
vn -0.1557 0.9867 -0.0469
vn -0.1599 0.9861 0.0463
vn -0.1052 0.9942 0.0233
vn -0.0902 0.9946 -0.0516
vn 0.0902 0.9946 -0.0516
vn 0.0001 0.2955 -0.9553
vn -0.6838 0.6856 0.2498
vn -0.7114 0.6991 0.0714
vn -0.6841 0.7251 0.0787
vn -0.6433 0.7603 -0.0901
vn -0.2844 0.9584 0.0243
vn -0.5836 0.7829 0.2156
vn -0.6319 0.7664 0.1157
vn 0.6319 0.7664 0.1157
vn 0.0676 0.9971 -0.0361
vn 0.0580 0.9949 -0.0823
vn 0.0640 0.9975 0.0289
vn -0.9077 0.4139 0.0685
vn -0.4947 0.6916 0.5263
vn 0.9395 -0.3253 -0.1071
vn 0.9426 -0.3315 -0.0390
vn 0.9427 -0.3321 -0.0321
vn 0.9420 -0.3354 0.0155
vn 0.0549 0.9958 0.0733
vn 0.0575 0.9735 -0.2212
vn 0.5249 0.8506 0.0291
vn 0.5846 0.8101 0.0450
vn -0.0000 -1.0000 -0.0000
vn 0.3505 -0.9359 0.0343
vn 0.3939 -0.9188 -0.0271
vn 0.2376 -0.9706 0.0381
vn 0.2990 -0.9541 -0.0176
vn 0.6116 -0.7862 -0.0889
vn 0.4367 -0.8892 0.1363
vn 0.4491 -0.8713 0.1977
vn -0.0000 -0.9892 0.1464
vn -0.0000 -0.9997 0.0258
vn -0.0000 -1.0000 0.0095
vn -0.0715 0.9895 -0.1256
vn -0.2550 0.9621 -0.0969
vn -0.6491 0.7604 0.0210
vn -0.5920 0.8057 0.0194
vn -0.7594 0.6505 -0.0087
vn -0.3962 0.9180 -0.0194
vn -0.4488 0.8936 -0.0074
vn -0.2013 0.9780 -0.0539
vn -0.2865 0.9572 -0.0413
vn 0.5638 0.7938 0.2280
vn 0.5836 0.7829 0.2156
vn 0.5824 0.7792 0.2314
vn -0.4644 0.8855 -0.0135
vn -0.3833 0.9234 -0.0186
vn -0.2900 0.9570 -0.0008
vn -0.2116 0.9773 0.0124
vn -0.0104 0.9983 -0.0577
vn -0.0572 0.9960 -0.0693
vn -0.2846 0.9530 0.1040
vn -0.0814 0.9923 0.0931
vn -0.0001 0.2955 -0.9553
vn 0.6433 0.7603 -0.0901
vn -0.3594 -0.9207 -0.1522
vn -0.4815 -0.8545 -0.1950
vn -0.5601 -0.7980 -0.2223
vn -0.0676 0.9971 -0.0361
vn -0.0640 0.9975 0.0289
vn -0.0580 0.9949 -0.0823
vn 0.9077 0.4139 0.0685
vn 0.4947 0.6916 0.5263
vn -0.9395 -0.3253 -0.1071
vn -0.9427 -0.3321 -0.0321
vn -0.9426 -0.3315 -0.0390
vn -0.9420 -0.3354 0.0155
vn -0.0549 0.9958 0.0733
vn -0.0575 0.9735 -0.2212
vn -0.5846 0.8101 0.0450
vn -0.5249 0.8506 0.0291
vn -0.3505 -0.9359 0.0343
vn -0.3939 -0.9188 -0.0271
vn -0.2990 -0.9541 -0.0176
vn -0.2376 -0.9706 0.0381
vn -0.6116 -0.7862 -0.0889
vn -0.4367 -0.8892 0.1363
vn -0.4491 -0.8713 0.1977
vn -0.5824 0.7792 0.2314
vn -0.5638 0.7938 0.2280
vn -0.7325 -0.6201 -0.2809
vn 0.4815 -0.8545 -0.1950
vn 0.3594 -0.9207 -0.1522
vn 0.5601 -0.7980 -0.2223
vn 0.4330 0.8967 -0.0918
vn -0.9583 0.2508 -0.1367
vn -0.5752 -0.8134 -0.0863
vn -0.3980 0.7509 -0.5270
vn 0.3980 0.7509 -0.5270
vn 0.7325 -0.6201 -0.2809
vn -0.0000 -0.0000 -1.0000
vn -0.4330 0.8967 -0.0918
vn 0.5752 -0.8134 -0.0863
vn 0.9583 0.2508 -0.1367
s 1
f 9//1 16//2 3//3
f 2//4 19//5 18//6 11//7
f 17//8 76//9 79//10 19//5
f 53//11 58//12 20//13
f 55//14 7//15 75//16 74//17 15//18
f 19//5 79//10 78//19 5//20
f 4//21 10//22 8//23
f 10//22 73//24 75//16 7//15 8//23
f 3//3 16//2 10//22 4//21
f 45//25 40//26 81//27 83//28
f 5//20 78//19 77//29 16//2 9//1
f 12//30 18//30 23//30
f 53//31 20//32 59//33
f 20//32 56//34 59//33
f 15//18 74//17 76//9 17//8
f 37//35 36//36 60//37
f 57//38 7//15 55//14
f 13//39 22//40 24//41
f 18//42 19//42 21//42 23//42
f 19//43 5//43 21//43
f 5//44 22//45 21//46
f 21//46 22//45 12//47 23//47
f 24//41 22//40 5//48
f 12//49 22//40 13//39
f 2//4 17//8 19//5
f 2//4 11//7 26//50 25//51
f 25//51 17//8 2//4
f 13//52 24//52 5//52 12//52
f 7//53 5//54 9//52 8//52
f 8//52 9//52 3//52 4//52
f 5//52 18//52 12//52
f 5//54 7//53 27//55 14//56
f 18//57 5//54 14//56 28//57
f 6//58 1//59 29//60
f 6//58 29//60 27//55 7//53
f 14//56 27//55 31//61 30//62
f 29//60 31//61 27//55
f 14//56 30//62 28//52
f 39//63 33//64 45//25
f 32//65 41//66 46//67 47//68
f 17//69 47//68 85//70 84//71
f 1//72 6//73 57//38 54//74
f 55//75 15//76 80//77 82//78 37//35
f 47//68 35//79 86//80 85//70
f 34//81 38//82 40//26
f 40//26 38//82 37//35 82//78 81//27
f 33//64 34//81 40//26 45//25
f 35//79 39//63 45//25 83//28 86//80
f 42//83 50//83 46//83
f 15//76 17//69 84//71 80//77
f 20//13 58//12 56//84
f 7//15 57//38 6//73
f 26//85 11//86 62//87 63//85
f 60//37 55//75 37//35
f 43//88 51//89 49//90
f 46//91 50//91 48//91 47//91
f 47//92 48//92 35//92
f 35//93 48//94 49//95
f 48//94 50//96 42//96 49//95
f 51//89 35//97 49//90
f 42//98 43//88 49//90
f 32//65 47//68 17//69
f 32//65 25//99 26//100 41//66
f 25//99 32//65 17//69
f 43//52 42//52 35//52 51//52
f 37//101 38//52 39//52 35//102
f 38//52 34//52 33//52 39//52
f 35//52 42//52 46//52
f 35//102 44//103 52//104 37//101
f 46//105 28//105 44//103 35//102
f 36//106 29//60 1//107
f 36//106 37//101 52//104 29//60
f 44//103 30//62 31//61 52//104
f 29//60 52//104 31//61
f 44//103 28//52 30//62
f 54//74 57//38 58//12 53//11
f 57//38 55//14 56//84 58//12
f 53//31 59//33 60//37 54//108
f 59//33 56//34 55//75 60//37
f 1//109 54//108 60//37 36//36
f 11//86 18//110 61//110 62//87
f 41//111 26//112 63//112 66//113
f 63//114 62//114 68//114 69//114
f 65//115 66//115 72//115 71//115
f 64//116 65//116 71//116 70//116
f 18//117 28//117 64//117 61//117
f 28//118 46//118 65//118 64//118
f 46//119 41//111 66//113 65//119
f 68//120 67//120 71//120 72//120
f 69//120 68//120 72//120
f 67//120 70//120 71//120
f 66//121 63//121 69//121 72//121
f 61//122 64//122 70//122 67//122
f 62//123 61//123 67//123 68//123
f 73//24 74//17 75//16
f 76//9 77//29 78//19 79//10
f 80//77 81//27 82//78
f 83//28 84//71 85//70 86//80
f 73//24 77//29 76//9 74//17
f 80//77 84//71 83//28 81//27
f 16//2 77//29 73//24 10//22
